<?xml version="1.0" standalone="no"?>
<!DOCTYPE svg PUBLIC "-//W3C//DTD SVG 20010904//EN"
 "http://www.w3.org/TR/2001/REC-SVG-20010904/DTD/svg10.dtd">
<svg version="1.0" xmlns="http://www.w3.org/2000/svg"
 width="300.000000pt" height="413.000000pt" viewBox="0 0 300.000000 413.000000"
 preserveAspectRatio="xMidYMid meet">
<metadata>
Created by potrace 1.10, written by Peter Selinger 2001-2011
</metadata>
<g transform="translate(0.000000,413.000000) scale(0.100000,-0.100000)"
fill="#000000" stroke="none">
<path d="M98 4087 c-44 -27 -73 -52 -83 -73 -13 -28 -15 -251 -13 -1981 l3
-1948 5 1961 c4 1644 7 1964 19 1978 12 14 122 86 132 86 2 0 3 -902 1 -2005
l-2 -2005 387 -2 388 -3 -76 -42 -76 -43 -353 0 -352 0 -34 34 c-35 35 -44 35
-19 0 29 -43 53 -45 426 -42 l354 3 78 48 77 48 0 785 0 785 506 -3 506 -3 34
-37 34 -38 0 -750 c0 -824 -2 -793 60 -825 24 -13 86 -15 378 -15 l348 0 87
52 87 52 0 2013 0 2013 -394 0 -394 0 -71 -41 c-43 -25 -77 -52 -86 -70 -13
-24 -15 -142 -15 -824 l0 -795 -540 0 -540 0 0 865 0 865 -397 -1 -398 0 -67
-42z m852 -832 l0 -865 545 0 545 0 0 -305 0 -305 -542 -2 -543 -3 -3 -833 -2
-832 -385 0 -385 0 0 2005 0 2005 385 0 385 0 0 -865z m2040 -1140 l0 -2005
-385 0 -385 0 0 2005 0 2005 385 0 385 0 0 -2005z m-402 -2015 l387 0 -75 -45
-75 -45 -354 0 -353 0 -34 34 -34 34 0 754 c0 738 0 754 -20 786 -38 62 -39
62 -575 62 l-485 0 0 40 0 40 538 2 537 3 5 1122 5 1122 21 22 c12 11 43 33
70 49 l49 28 3 -2004 2 -2004 388 0z"/>
</g>
</svg>
