<svg xmlns="http://www.w3.org/2000/svg" width="176.15" height="144.138" viewBox="0 0 176.15 144.138">
  <g id="MCgp1w01" transform="translate(-11.925 172.063)">
    <path id="Path_2" data-name="Path 2" d="M73.5-170.6c-5.7,2.5-7,5-7.4,14.2l-.3,8.4H40.1c-18.7,0-26,.3-26.9,1.2-1.7,1.7-1.7,96.3,0,102.2,1.6,5.5,9.9,13.8,15.4,15.4,5.9,1.7,136.9,1.7,142.8,0,5.5-1.6,13.8-9.9,15.4-15.4,1.7-5.9,1.7-100.5,0-102.2-.9-.9-8.2-1.2-26.9-1.2H134.2l-.3-8.4c-.4-9.3-1.7-11.7-7.6-14.2C121.8-172.6,77.8-172.5,73.5-170.6Zm50.6,7.6c1.6.9,1.9,2.2,1.9,8v7H74v-7c0-5.5.3-7.1,1.8-7.9C78.1-164.3,121.5-164.3,124.1-163Zm55.7,37.2-.3,14.3-5,1.7c-4.2,1.4-9.3,1.7-32.6,1.8H114.3l-.6-4.6a11.229,11.229,0,0,0-3.6-7.8c-2.9-2.9-3.6-3.1-10.1-3.1s-7.2.2-10.1,3.1a11.229,11.229,0,0,0-3.6,7.8l-.6,4.7-29.6-.3c-26.1-.3-30-.5-32.8-2.1L20-112.1V-140H180.1Zm-75,11c1.6,1.6,1.6,20,0,21.6-.7.7-2.8,1.2-4.8,1.2s-4.1-.5-4.8-1.2c-1.6-1.6-1.6-20,0-21.6S103.2-116.4,104.8-114.8ZM58.1-100H85.7l.6,4.6a11.229,11.229,0,0,0,3.6,7.8c2.9,2.9,3.6,3.1,10.1,3.1s7.2-.2,10.1-3.1a11.229,11.229,0,0,0,3.6-7.8l.6-4.6h27.6c20.1,0,29.1-.4,32.9-1.4l5.3-1.3-.3,28.3c-.3,26.7-.4,28.4-2.4,31a27.259,27.259,0,0,1-4.8,4.8c-2.7,2.1-3.6,2.1-72.6,2.1s-69.9,0-72.6-2.1a27.259,27.259,0,0,1-4.8-4.8c-2-2.6-2.1-4.3-2.4-31l-.3-28.3,5.3,1.3C29-100.4,38-100,58.1-100Z"/>
  </g>
</svg>
